<svg width="140" height="96" viewBox="0 0 140 96" fill="none" xmlns="http://www.w3.org/2000/svg">
<path d="M15.0299 62.2C16.2499 62.46 17.2299 63.07 17.9699 64.03C18.7099 64.97 19.0799 66.05 19.0799 67.27C19.0799 69.03 18.4599 70.43 17.2199 71.47C15.9999 72.49 14.2899 73 12.0899 73H2.27992V51.94H11.7599C13.8999 51.94 15.5699 52.43 16.7699 53.41C17.9899 54.39 18.5999 55.72 18.5999 57.4C18.5999 58.64 18.2699 59.67 17.6099 60.49C16.9699 61.31 16.1099 61.88 15.0299 62.2ZM7.40992 60.46H10.7699C11.6099 60.46 12.2499 60.28 12.6899 59.92C13.1499 59.54 13.3799 58.99 13.3799 58.27C13.3799 57.55 13.1499 57 12.6899 56.62C12.2499 56.24 11.6099 56.05 10.7699 56.05H7.40992V60.46ZM11.1899 68.86C12.0499 68.86 12.7099 68.67 13.1699 68.29C13.6499 67.89 13.8899 67.32 13.8899 66.58C13.8899 65.84 13.6399 65.26 13.1399 64.84C12.6599 64.42 11.9899 64.21 11.1299 64.21H7.40992V68.86H11.1899ZM27.1853 69.04H33.9053V73H22.0553V51.94H27.1853V69.04ZM46.3122 73.21C44.3322 73.21 42.5122 72.75 40.8522 71.83C39.2122 70.91 37.9022 69.63 36.9222 67.99C35.9622 66.33 35.4822 64.47 35.4822 62.41C35.4822 60.35 35.9622 58.5 36.9222 56.86C37.9022 55.22 39.2122 53.94 40.8522 53.02C42.5122 52.1 44.3322 51.64 46.3122 51.64C48.2922 51.64 50.1022 52.1 51.7422 53.02C53.4022 53.94 54.7022 55.22 55.6422 56.86C56.6022 58.5 57.0822 60.35 57.0822 62.41C57.0822 64.47 56.6022 66.33 55.6422 67.99C54.6822 69.63 53.3822 70.91 51.7422 71.83C50.1022 72.75 48.2922 73.21 46.3122 73.21ZM46.3122 68.53C47.9922 68.53 49.3322 67.97 50.3322 66.85C51.3522 65.73 51.8622 64.25 51.8622 62.41C51.8622 60.55 51.3522 59.07 50.3322 57.97C49.3322 56.85 47.9922 56.29 46.3122 56.29C44.6122 56.29 43.2522 56.84 42.2322 57.94C41.2322 59.04 40.7322 60.53 40.7322 62.41C40.7322 64.27 41.2322 65.76 42.2322 66.88C43.2522 67.98 44.6122 68.53 46.3122 68.53ZM73.9162 58.6C73.5362 57.9 72.9862 57.37 72.2662 57.01C71.5662 56.63 70.7362 56.44 69.7762 56.44C68.1162 56.44 66.7862 56.99 65.7862 58.09C64.7862 59.17 64.2862 60.62 64.2862 62.44C64.2862 64.38 64.8062 65.9 65.8462 67C66.9062 68.08 68.3562 68.62 70.1962 68.62C71.4562 68.62 72.5162 68.3 73.3762 67.66C74.2562 67.02 74.8962 66.1 75.2962 64.9H68.7862V61.12H79.9462V65.89C79.5662 67.17 78.9162 68.36 77.9962 69.46C77.0962 70.56 75.9462 71.45 74.5462 72.13C73.1462 72.81 71.5662 73.15 69.8062 73.15C67.7262 73.15 65.8662 72.7 64.2262 71.8C62.6062 70.88 61.3362 69.61 60.4162 67.99C59.5162 66.37 59.0662 64.52 59.0662 62.44C59.0662 60.36 59.5162 58.51 60.4162 56.89C61.3362 55.25 62.6062 53.98 64.2262 53.08C65.8462 52.16 67.6962 51.7 69.7762 51.7C72.2962 51.7 74.4162 52.31 76.1362 53.53C77.8762 54.75 79.0262 56.44 79.5862 58.6H73.9162ZM96.7677 58.6C96.3877 57.9 95.8377 57.37 95.1177 57.01C94.4177 56.63 93.5877 56.44 92.6277 56.44C90.9677 56.44 89.6377 56.99 88.6377 58.09C87.6377 59.17 87.1377 60.62 87.1377 62.44C87.1377 64.38 87.6577 65.9 88.6977 67C89.7577 68.08 91.2077 68.62 93.0477 68.62C94.3077 68.62 95.3677 68.3 96.2277 67.66C97.1077 67.02 97.7477 66.1 98.1477 64.9H91.6377V61.12H102.798V65.89C102.418 67.17 101.768 68.36 100.848 69.46C99.9477 70.56 98.7977 71.45 97.3977 72.13C95.9977 72.81 94.4177 73.15 92.6577 73.15C90.5777 73.15 88.7177 72.7 87.0777 71.8C85.4577 70.88 84.1877 69.61 83.2677 67.99C82.3677 66.37 81.9177 64.52 81.9177 62.44C81.9177 60.36 82.3677 58.51 83.2677 56.89C84.1877 55.25 85.4577 53.98 87.0777 53.08C88.6977 52.16 90.5477 51.7 92.6277 51.7C95.1477 51.7 97.2677 52.31 98.9877 53.53C100.728 54.75 101.878 56.44 102.438 58.6H96.7677ZM110.769 56.05V60.31H117.639V64.27H110.769V68.89H118.539V73H105.639V51.94H118.539V56.05H110.769ZM132.61 73L128.23 65.05H127V73H121.87V51.94H130.48C132.14 51.94 133.55 52.23 134.71 52.81C135.89 53.39 136.77 54.19 137.35 55.21C137.93 56.21 138.22 57.33 138.22 58.57C138.22 59.97 137.82 61.22 137.02 62.32C136.24 63.42 135.08 64.2 133.54 64.66L138.4 73H132.61ZM127 61.42H130.18C131.12 61.42 131.82 61.19 132.28 60.73C132.76 60.27 133 59.62 133 58.78C133 57.98 132.76 57.35 132.28 56.89C131.82 56.43 131.12 56.2 130.18 56.2H127V61.42Z" fill="white"/>
<path d="M6.69227 79.6055V80.8626H2.70468V83.6337H5.81365V84.8908H2.70468V89H1.16372V79.6055H6.69227ZM9.66131 78.9972V89H8.12035V78.9972H9.66131ZM18.4296 81.552V89H16.8886V88.1214C16.6453 88.4278 16.3254 88.6711 15.9289 88.8513C15.5414 89.0225 15.1269 89.1081 14.6853 89.1081C14.0995 89.1081 13.5724 88.9865 13.1038 88.7432C12.6442 88.4999 12.2792 88.1394 12.0089 87.6618C11.7475 87.1842 11.6169 86.6074 11.6169 85.9316V81.552H13.1443V85.7018C13.1443 86.3686 13.311 86.8823 13.6445 87.2428C13.9779 87.5942 14.433 87.7699 15.0097 87.7699C15.5864 87.7699 16.0415 87.5942 16.3749 87.2428C16.7174 86.8823 16.8886 86.3686 16.8886 85.7018V81.552H18.4296ZM22.2605 82.8091V86.9319C22.2605 87.2112 22.3236 87.414 22.4498 87.5401C22.585 87.6573 22.8102 87.7159 23.1256 87.7159H24.0718V89H22.8553C22.1614 89 21.6297 88.8378 21.2603 88.5134C20.8908 88.189 20.7061 87.6618 20.7061 86.9319V82.8091H19.8274V81.552H20.7061V79.7001H22.2605V81.552H24.0718V82.8091H22.2605ZM27.2899 82.8091V86.9319C27.2899 87.2112 27.353 87.414 27.4791 87.5401C27.6143 87.6573 27.8396 87.7159 28.155 87.7159H29.1012V89H27.8847C27.1908 89 26.6591 88.8378 26.2896 88.5134C25.9202 88.189 25.7354 87.6618 25.7354 86.9319V82.8091H24.8568V81.552H25.7354V79.7001H27.2899V81.552H29.1012V82.8091H27.2899ZM37.3477 85.0935C37.3477 85.3729 37.3297 85.6252 37.2936 85.8505H31.6029C31.6479 86.4452 31.8687 86.9229 32.2652 87.2833C32.6617 87.6438 33.1483 87.824 33.7251 87.824C34.5541 87.824 35.1399 87.4771 35.4823 86.7832H37.1449C36.9196 87.468 36.5096 88.0313 35.9149 88.4728C35.3291 88.9054 34.5992 89.1217 33.7251 89.1217C33.0132 89.1217 32.3733 88.964 31.8056 88.6486C31.2469 88.3241 30.8053 87.8736 30.4809 87.2968C30.1655 86.7111 30.0078 86.0352 30.0078 85.2692C30.0078 84.5033 30.161 83.8319 30.4674 83.2552C30.7828 82.6694 31.2199 82.2189 31.7786 81.9034C32.3463 81.588 32.9951 81.4303 33.7251 81.4303C34.428 81.4303 35.0543 81.5835 35.604 81.8899C36.1537 82.1963 36.5817 82.6289 36.8881 83.1876C37.1945 83.7373 37.3477 84.3726 37.3477 85.0935ZM35.7391 84.6069C35.7301 84.0392 35.5274 83.5841 35.1309 83.2417C34.7343 82.8992 34.2432 82.728 33.6575 82.728C33.1258 82.728 32.6707 82.8992 32.2922 83.2417C31.9138 83.5751 31.6885 84.0302 31.6164 84.6069H35.7391ZM40.4051 82.6334C40.6304 82.2549 40.9278 81.962 41.2972 81.7548C41.6757 81.5385 42.1218 81.4303 42.6355 81.4303V83.0254H42.2435C41.6397 83.0254 41.1801 83.1786 40.8647 83.485C40.5583 83.7914 40.4051 84.323 40.4051 85.08V89H38.8641V81.552H40.4051V82.6334ZM54.822 89L53.6595 87.8375C53.2089 88.2881 52.7178 88.626 52.1861 88.8513C51.6544 89.0676 51.0597 89.1757 50.4019 89.1757C49.735 89.1757 49.1447 89.0586 48.6311 88.8243C48.1174 88.59 47.7209 88.2566 47.4416 87.824C47.1622 87.3824 47.0225 86.8733 47.0225 86.2966C47.0225 85.6477 47.2073 85.071 47.5767 84.5663C47.9462 84.0527 48.4959 83.6472 49.2259 83.3498C48.9645 83.0344 48.7798 82.7415 48.6716 82.4712C48.5635 82.1918 48.5094 81.8854 48.5094 81.552C48.5094 81.1375 48.6131 80.768 48.8203 80.4436C49.0366 80.1192 49.343 79.8623 49.7395 79.6731C50.136 79.4839 50.5956 79.3892 51.1183 79.3892C51.6499 79.3892 52.1005 79.4929 52.47 79.7001C52.8485 79.8984 53.1278 80.1732 53.3081 80.5247C53.4973 80.8761 53.5739 81.2681 53.5379 81.7007H51.9969C52.0059 81.3673 51.9248 81.1104 51.7536 80.9302C51.5824 80.741 51.3481 80.6463 51.0507 80.6463C50.7533 80.6463 50.51 80.7365 50.3207 80.9167C50.1405 81.0879 50.0504 81.2997 50.0504 81.552C50.0504 81.7953 50.118 82.0386 50.2532 82.2819C50.3973 82.5162 50.6452 82.8226 50.9966 83.2011L53.4838 85.6748L54.4435 84.0932H56.1061L54.8896 86.1749L54.5516 86.7291L56.8361 89H54.822ZM50.4019 87.8646C51.2489 87.8646 51.9969 87.5176 52.6457 86.8237L50.1585 84.323C49.0952 84.7466 48.5635 85.3864 48.5635 86.2425C48.5635 86.7021 48.7347 87.0896 49.0772 87.405C49.4196 87.7114 49.8612 87.8646 50.4019 87.8646ZM67.9271 82.4036C67.9271 82.8812 67.8144 83.3318 67.5891 83.7553C67.3638 84.1789 67.0034 84.5258 66.5077 84.7961C66.0121 85.0575 65.3768 85.1881 64.6018 85.1881H62.8986V89H61.3577V79.6055H64.6018C65.3227 79.6055 65.931 79.7317 66.4266 79.984C66.9313 80.2273 67.3053 80.5607 67.5486 80.9843C67.8009 81.4078 67.9271 81.8809 67.9271 82.4036ZM64.6018 83.931C65.1876 83.931 65.6246 83.8004 65.913 83.539C66.2014 83.2687 66.3455 82.8902 66.3455 82.4036C66.3455 81.3763 65.7643 80.8626 64.6018 80.8626H62.8986V83.931H64.6018ZM72.6274 89.1217C71.9245 89.1217 71.2892 88.964 70.7214 88.6486C70.1537 88.3241 69.7076 87.8736 69.3832 87.2968C69.0588 86.7111 68.8966 86.0352 68.8966 85.2692C68.8966 84.5123 69.0633 83.8409 69.3967 83.2552C69.7302 82.6694 70.1852 82.2189 70.762 81.9034C71.3387 81.588 71.983 81.4303 72.6949 81.4303C73.4069 81.4303 74.0512 81.588 74.6279 81.9034C75.2047 82.2189 75.6597 82.6694 75.9932 83.2552C76.3266 83.8409 76.4933 84.5123 76.4933 85.2692C76.4933 86.0262 76.3221 86.6976 75.9796 87.2833C75.6372 87.8691 75.1686 88.3241 74.5738 88.6486C73.9881 88.964 73.3393 89.1217 72.6274 89.1217ZM72.6274 87.7834C73.0239 87.7834 73.3933 87.6888 73.7358 87.4996C74.0872 87.3103 74.3711 87.0265 74.5874 86.648C74.8036 86.2695 74.9118 85.8099 74.9118 85.2692C74.9118 84.7286 74.8081 84.2735 74.6009 83.904C74.3936 83.5255 74.1188 83.2417 73.7763 83.0524C73.4339 82.8632 73.0644 82.7686 72.6679 82.7686C72.2714 82.7686 71.9019 82.8632 71.5595 83.0524C71.2261 83.2417 70.9602 83.5255 70.762 83.904C70.5637 84.2735 70.4646 84.7286 70.4646 85.2692C70.4646 86.0713 70.6674 86.6931 71.0729 87.1346C71.4874 87.5672 72.0056 87.7834 72.6274 87.7834ZM77.503 85.2692C77.503 84.5033 77.6562 83.8319 77.9626 83.2552C78.278 82.6694 78.7105 82.2189 79.2602 81.9034C79.8099 81.588 80.4407 81.4303 81.1526 81.4303C82.0538 81.4303 82.7972 81.6466 83.383 82.0792C83.9777 82.5027 84.3787 83.111 84.586 83.904H82.9234C82.7882 83.5345 82.5719 83.2462 82.2746 83.0389C81.9772 82.8316 81.6032 82.728 81.1526 82.728C80.5218 82.728 80.0172 82.9533 79.6387 83.4039C79.2692 83.8454 79.0845 84.4672 79.0845 85.2692C79.0845 86.0713 79.2692 86.6976 79.6387 87.1481C80.0172 87.5987 80.5218 87.824 81.1526 87.824C82.0448 87.824 82.635 87.432 82.9234 86.648H84.586C84.3697 87.405 83.9642 88.0087 83.3695 88.4593C82.7747 88.9009 82.0358 89.1217 81.1526 89.1217C80.4407 89.1217 79.8099 88.964 79.2602 88.6486C78.7105 88.3241 78.278 87.8736 77.9626 87.2968C77.6562 86.7111 77.503 86.0352 77.503 85.2692ZM89.0684 85.2828L92.5018 89H90.4202L87.6627 85.7964V89H86.1217V78.9972H87.6627V84.8097L90.3661 81.552H92.5018L89.0684 85.2828ZM100.433 85.0935C100.433 85.3729 100.415 85.6252 100.378 85.8505H94.6877C94.7328 86.4452 94.9535 86.9229 95.3501 87.2833C95.7466 87.6438 96.2332 87.824 96.8099 87.824C97.639 87.824 98.2247 87.4771 98.5672 86.7832H100.23C100.004 87.468 99.5945 88.0313 98.9997 88.4728C98.414 88.9054 97.684 89.1217 96.8099 89.1217C96.098 89.1217 95.4582 88.964 94.8905 88.6486C94.3318 88.3241 93.8902 87.8736 93.5658 87.2968C93.2504 86.7111 93.0927 86.0352 93.0927 85.2692C93.0927 84.5033 93.2459 83.8319 93.5523 83.2552C93.8677 82.6694 94.3047 82.2189 94.8634 81.9034C95.4312 81.588 96.08 81.4303 96.8099 81.4303C97.5128 81.4303 98.1391 81.5835 98.6888 81.8899C99.2385 82.1963 99.6666 82.6289 99.973 83.1876C100.279 83.7373 100.433 84.3726 100.433 85.0935ZM98.824 84.6069C98.815 84.0392 98.6122 83.5841 98.2157 83.2417C97.8192 82.8992 97.3281 82.728 96.7423 82.728C96.2107 82.728 95.7556 82.8992 95.3771 83.2417C94.9986 83.5751 94.7733 84.0302 94.7012 84.6069H98.824ZM103.747 82.8091V86.9319C103.747 87.2112 103.81 87.414 103.936 87.5401C104.071 87.6573 104.296 87.7159 104.612 87.7159H105.558V89H104.342C103.648 89 103.116 88.8378 102.747 88.5134C102.377 88.189 102.192 87.6618 102.192 86.9319V82.8091H101.314V81.552H102.192V79.7001H103.747V81.552H105.558V82.8091H103.747ZM108.519 82.6604C108.781 82.3 109.137 82.0071 109.587 81.7818C110.047 81.5475 110.556 81.4303 111.115 81.4303C111.772 81.4303 112.367 81.588 112.899 81.9034C113.431 82.2189 113.85 82.6694 114.156 83.2552C114.462 83.8319 114.616 84.4943 114.616 85.2422C114.616 85.9902 114.462 86.6615 114.156 87.2563C113.85 87.842 113.426 88.3016 112.885 88.635C112.354 88.9594 111.763 89.1217 111.115 89.1217C110.538 89.1217 110.024 89.009 109.574 88.7837C109.132 88.5584 108.781 88.2701 108.519 87.9186V89H106.978V78.9972H108.519V82.6604ZM113.048 85.2422C113.048 84.7286 112.939 84.287 112.723 83.9175C112.516 83.539 112.237 83.2552 111.885 83.0659C111.543 82.8677 111.173 82.7686 110.777 82.7686C110.389 82.7686 110.02 82.8677 109.668 83.0659C109.326 83.2642 109.047 83.5526 108.83 83.931C108.623 84.3095 108.519 84.7556 108.519 85.2692C108.519 85.7829 108.623 86.2335 108.83 86.621C109.047 86.9994 109.326 87.2878 109.668 87.4861C110.02 87.6843 110.389 87.7834 110.777 87.7834C111.173 87.7834 111.543 87.6843 111.885 87.4861C112.237 87.2788 112.516 86.9814 112.723 86.5939C112.939 86.2064 113.048 85.7559 113.048 85.2422ZM115.626 85.2422C115.626 84.4943 115.779 83.8319 116.085 83.2552C116.401 82.6784 116.824 82.2324 117.356 81.917C117.897 81.5926 118.491 81.4303 119.14 81.4303C119.726 81.4303 120.235 81.5475 120.668 81.7818C121.109 82.0071 121.461 82.2909 121.722 82.6334V81.552H123.277V89H121.722V87.8916C121.461 88.243 121.105 88.5359 120.654 88.7702C120.204 89.0045 119.69 89.1217 119.113 89.1217C118.473 89.1217 117.888 88.9594 117.356 88.635C116.824 88.3016 116.401 87.842 116.085 87.2563C115.779 86.6615 115.626 85.9902 115.626 85.2422ZM121.722 85.2692C121.722 84.7556 121.614 84.3095 121.398 83.931C121.19 83.5526 120.916 83.2642 120.573 83.0659C120.231 82.8677 119.861 82.7686 119.465 82.7686C119.068 82.7686 118.699 82.8677 118.356 83.0659C118.014 83.2552 117.734 83.539 117.518 83.9175C117.311 84.287 117.207 84.7286 117.207 85.2422C117.207 85.7559 117.311 86.2064 117.518 86.5939C117.734 86.9814 118.014 87.2788 118.356 87.4861C118.708 87.6843 119.077 87.7834 119.465 87.7834C119.861 87.7834 120.231 87.6843 120.573 87.4861C120.916 87.2878 121.19 86.9994 121.398 86.621C121.614 86.2335 121.722 85.7829 121.722 85.2692ZM128.004 89.1217C127.418 89.1217 126.891 89.018 126.422 88.8108C125.963 88.5945 125.598 88.3061 125.328 87.9457C125.057 87.5762 124.913 87.1662 124.895 86.7156H126.49C126.517 87.031 126.666 87.2968 126.936 87.5131C127.216 87.7204 127.562 87.824 127.977 87.824C128.41 87.824 128.743 87.7429 128.977 87.5807C129.221 87.4095 129.342 87.1932 129.342 86.9319C129.342 86.6525 129.207 86.4452 128.937 86.3101C128.675 86.1749 128.256 86.0262 127.68 85.864C127.121 85.7108 126.666 85.5621 126.314 85.4179C125.963 85.2737 125.657 85.053 125.395 84.7556C125.143 84.4582 125.017 84.0662 125.017 83.5796C125.017 83.1831 125.134 82.8226 125.368 82.4982C125.602 82.1648 125.936 81.9034 126.368 81.7142C126.81 81.525 127.315 81.4303 127.882 81.4303C128.729 81.4303 129.41 81.6466 129.923 82.0792C130.446 82.5027 130.725 83.084 130.762 83.8229H129.221C129.194 83.4895 129.058 83.2236 128.815 83.0254C128.572 82.8271 128.243 82.728 127.828 82.728C127.423 82.728 127.112 82.8046 126.896 82.9578C126.679 83.111 126.571 83.3137 126.571 83.5661C126.571 83.7643 126.643 83.931 126.787 84.0662C126.932 84.2014 127.107 84.3095 127.315 84.3906C127.522 84.4627 127.828 84.5573 128.234 84.6745C128.774 84.8187 129.216 84.9674 129.558 85.1206C129.91 85.2647 130.212 85.481 130.464 85.7694C130.716 86.0577 130.847 86.4407 130.856 86.9183C130.856 87.3419 130.739 87.7204 130.505 88.0538C130.27 88.3872 129.937 88.6486 129.504 88.8378C129.081 89.027 128.581 89.1217 128.004 89.1217ZM139.347 85.0935C139.347 85.3729 139.329 85.6252 139.293 85.8505H133.603C133.648 86.4452 133.868 86.9229 134.265 87.2833C134.661 87.6438 135.148 87.824 135.725 87.824C136.554 87.824 137.14 87.4771 137.482 86.7832H139.145C138.919 87.468 138.509 88.0313 137.915 88.4728C137.329 88.9054 136.599 89.1217 135.725 89.1217C135.013 89.1217 134.373 88.964 133.805 88.6486C133.247 88.3241 132.805 87.8736 132.481 87.2968C132.165 86.7111 132.008 86.0352 132.008 85.2692C132.008 84.5033 132.161 83.8319 132.467 83.2552C132.783 82.6694 133.22 82.2189 133.778 81.9034C134.346 81.588 134.995 81.4303 135.725 81.4303C136.428 81.4303 137.054 81.5835 137.604 81.8899C138.153 82.1963 138.581 82.6289 138.888 83.1876C139.194 83.7373 139.347 84.3726 139.347 85.0935ZM137.739 84.6069C137.73 84.0392 137.527 83.5841 137.131 83.2417C136.734 82.8992 136.243 82.728 135.657 82.728C135.126 82.728 134.67 82.8992 134.292 83.2417C133.913 83.5751 133.688 84.0302 133.616 84.6069H137.739Z" fill="white"/>
<path d="M56.7891 25.8865H62.0625C63.0333 25.8865 63.8203 25.0995 63.8203 24.1287C63.8203 23.1578 63.0333 22.3708 62.0625 22.3708H56.7891C55.8182 22.3708 55.0312 23.1578 55.0312 24.1287C55.0312 25.0995 55.8182 25.8865 56.7891 25.8865Z" fill="white"/>
<path d="M56.7891 18.8552H62.0625C63.0333 18.8552 63.8203 18.0683 63.8203 17.0974C63.8203 16.1266 63.0333 15.3396 62.0625 15.3396H56.7891C55.8182 15.3396 55.0312 16.1266 55.0312 17.0974C55.0312 18.0683 55.8182 18.8552 56.7891 18.8552Z" fill="white"/>
<path d="M67.111 24.1287C67.111 25.0995 67.898 25.8865 68.8688 25.8865C72.5445 25.8865 76.0002 24.4551 78.5993 21.856L91.4542 8.99987C93.515 6.9391 93.5154 3.60321 91.4542 1.54208C89.3982 -0.514028 86.0526 -0.514028 83.9964 1.54208L71.1415 14.3982C68.5425 16.9974 67.111 20.453 67.111 24.1287ZM86.4825 4.02807C87.1677 3.3427 88.283 3.3427 88.9683 4.02807C89.6552 4.71485 89.6555 5.82693 88.9683 6.51397L76.1133 19.3701C74.6439 20.8396 72.8065 21.8077 70.8089 22.1886C71.1898 20.1911 72.158 18.3537 73.6273 16.8842L86.4825 4.02807Z" fill="white"/>
<path d="M53.2734 39.949C54.5721 39.949 55.8203 39.4724 56.7884 38.6069L59.2183 36.4333H77.1797C82.0261 36.4333 85.9688 32.4906 85.9688 27.6443V23.7013C85.9688 22.7304 85.1818 21.9434 84.2109 21.9434C83.2401 21.9434 82.4531 22.7304 82.4531 23.7013V27.6443C82.4531 30.5521 80.0875 32.9177 77.1797 32.9177H58.5469C58.1145 32.9177 57.6972 33.0771 57.3749 33.3654L54.4448 35.9863C54.1224 36.2746 53.7064 36.4333 53.2734 36.4333C52.3042 36.4333 51.5156 35.6448 51.5156 34.6755V13.5818C51.5156 10.674 53.8813 8.30835 56.7891 8.30835H71.5326C72.5035 8.30835 73.2904 7.52138 73.2904 6.55054C73.2904 5.5797 72.5035 4.79272 71.5326 4.79272H56.7891C51.9427 4.79272 48 8.7355 48 13.5818V34.6755C48 37.5833 50.3657 39.949 53.2734 39.949Z" fill="white"/>
</svg>
